<?xml version="1.0" encoding="UTF-8"?>
<svg id="_Слой_1" data-name="Слой_1" xmlns="http://www.w3.org/2000/svg" viewBox="0 0 100 100">
  <defs>
    <style>
      .cls-1 {
        fill: #235f90;
      }

      .cls-2 {
        fill: #48b3e1;
      }

      .cls-3 {
        fill: #0b3761;
      }
    </style>
  </defs>
  <g>
    <g>
      <path class="cls-3" d="M31.75,46.19l6.71-11.29h3.44v16.7h-3.44v-11.29l-6.71,11.29h-3.44v-16.7h3.44v11.29Z"/>
      <path class="cls-3" d="M51.38,45.65h-4.26v-2.68h4.26c.66,0,1.19-.11,1.61-.33.41-.22.72-.52.91-.91.19-.39.29-.83.29-1.32s-.1-.96-.29-1.39c-.19-.43-.49-.77-.91-1.03-.41-.26-.95-.39-1.61-.39h-3.06v14.01h-3.44v-16.7h6.5c1.31,0,2.43.23,3.37.71.94.47,1.65,1.12,2.15,1.94.5.83.75,1.77.75,2.83s-.25,2.01-.75,2.8-1.21,1.4-2.15,1.82c-.94.43-2.06.64-3.37.64Z"/>
      <path class="cls-3" d="M63.67,42.6h2.59c.91,0,1.72.1,2.43.29.71.19,1.31.47,1.8.84s.87.82,1.12,1.36c.26.54.38,1.16.38,1.85,0,.78-.16,1.47-.48,2.08s-.76,1.12-1.34,1.54c-.58.42-1.26.74-2.04.95-.78.21-1.65.32-2.59.32-.75,0-1.5-.09-2.24-.28-.74-.19-1.42-.48-2.02-.87-.6-.39-1.09-.89-1.45-1.5-.36-.61-.54-1.35-.54-2.2h3.45c0,.41.12.77.36,1.11.24.33.57.6.99.79.42.2.9.29,1.45.29.63,0,1.18-.1,1.62-.3.45-.2.79-.47,1.02-.82s.35-.73.35-1.15c0-.45-.06-.83-.18-1.15-.12-.31-.3-.57-.54-.77s-.53-.35-.88-.44c-.35-.09-.75-.14-1.21-.14h-2.07v-1.79ZM66.26,43.6h-2.59v-1.82h2.07c.6,0,1.09-.09,1.47-.28s.65-.45.83-.8c.18-.34.26-.75.26-1.22,0-.38-.1-.73-.29-1.06-.19-.32-.5-.58-.9-.77s-.92-.29-1.55-.29c-.47,0-.91.08-1.3.25-.39.17-.7.4-.93.71-.23.3-.34.67-.34,1.1h-3.43c0-.73.16-1.39.48-1.98.32-.59.75-1.08,1.31-1.49s1.19-.72,1.92-.94c.73-.21,1.49-.32,2.29-.32.94,0,1.79.1,2.55.3s1.41.5,1.95.9.96.89,1.25,1.48c.29.59.44,1.27.44,2.05,0,.57-.13,1.11-.39,1.62-.26.5-.63.95-1.11,1.33s-1.06.68-1.73.9-1.42.33-2.24.33Z"/>
    </g>
    <g>
      <path class="cls-1" d="M29.16,58.38h2.32c.78,0,1.46.13,2.02.39s1,.62,1.3,1.09c.3.47.46,1.02.46,1.64,0,.47-.09.91-.26,1.29-.17.39-.42.73-.75,1.01-.33.29-.73.5-1.19.66-.46.16-.99.23-1.58.23h-3.66v-9.94h2.06v8.35h1.6c.39,0,.71-.07.97-.22.26-.15.45-.34.58-.58.13-.24.19-.51.19-.81s-.06-.54-.19-.77c-.13-.23-.32-.41-.58-.54-.25-.13-.58-.2-.97-.2h-2.32v-1.6ZM34.34,54.76v1.61h-4.47v8.34h-2.04v-9.94h6.52Z"/>
      <path class="cls-1" d="M44.77,59.5v.47c0,.76-.1,1.43-.31,2.04-.21.6-.49,1.11-.87,1.53-.37.42-.82.74-1.33.97-.52.22-1.09.33-1.72.33s-1.19-.11-1.71-.33c-.52-.22-.96-.54-1.34-.97s-.67-.93-.88-1.53c-.21-.6-.31-1.28-.31-2.04v-.47c0-.76.1-1.44.31-2.04.21-.6.5-1.11.87-1.53.38-.42.82-.75,1.34-.97.52-.22,1.09-.33,1.71-.33s1.2.11,1.72.33c.52.22.96.55,1.34.97.38.42.67.93.87,1.53.21.6.31,1.28.31,2.04ZM42.7,59.97v-.49c0-.53-.05-.99-.14-1.39-.1-.4-.24-.74-.42-1.01-.19-.27-.41-.48-.68-.62s-.58-.21-.92-.21-.65.07-.92.21c-.27.14-.49.34-.68.62-.18.27-.32.61-.42,1.01s-.14.87-.14,1.39v.49c0,.52.05.99.14,1.39s.24.74.42,1.02.41.48.68.62c.27.14.58.21.92.21s.65-.07.92-.21c.27-.14.49-.35.68-.62.18-.28.32-.61.42-1.02.1-.4.14-.87.14-1.39Z"/>
      <path class="cls-1" d="M48.29,54.76v9.94h-2.05v-9.94h2.05ZM52.87,58.81v1.6h-5.19v-1.6h5.19ZM54.33,54.76v9.94h-2.04v-9.94h2.04Z"/>
      <path class="cls-1" d="M57.62,54.76l2.27,4.92.63,2.26-1.52.03-3.58-7.21h2.2ZM59.24,61.09l2.44-6.34h2.21l-3.41,8.02c-.12.27-.25.53-.41.78-.15.25-.33.47-.54.66-.21.19-.46.35-.75.46-.29.11-.64.17-1.04.17-.1,0-.22,0-.37,0-.15,0-.26-.01-.35-.02v-1.6s.13.02.25.02.21,0,.26,0c.27,0,.48-.04.63-.12.15-.08.28-.19.37-.33.09-.14.18-.31.25-.51l.46-1.2Z"/>
      <path class="cls-1" d="M70.55,61.4h2.04c-.04.67-.22,1.26-.55,1.78-.33.52-.78.92-1.36,1.21-.58.29-1.28.44-2.09.44-.64,0-1.21-.11-1.71-.33-.51-.22-.94-.54-1.29-.95s-.63-.92-.82-1.5c-.19-.59-.28-1.25-.28-1.97v-.69c0-.73.1-1.39.29-1.98.19-.59.47-1.09.83-1.51.36-.41.79-.73,1.3-.96.5-.22,1.07-.33,1.69-.33.83,0,1.53.15,2.1.45s1.02.71,1.33,1.24.51,1.13.57,1.8h-2.05c-.02-.4-.1-.74-.24-1.02-.14-.28-.34-.49-.62-.63s-.64-.21-1.1-.21c-.34,0-.64.06-.89.19-.25.13-.47.32-.64.58-.17.26-.3.59-.39.98-.08.39-.13.85-.13,1.38v.7c0,.51.04.97.12,1.36s.2.72.36.98c.16.27.37.47.63.6.26.13.57.2.93.2.43,0,.78-.07,1.06-.21s.49-.34.64-.61c.15-.27.24-.6.26-1Z"/>
    </g>
  </g>
  <g>
    <path class="cls-1" d="M6.77,38.58c-2.18-1.81-4.3-3.72-6.35-5.74C19.94-1.93,61.71-4.53,85.21,14.32c-2.1,1.87-4.12,3.82-6.05,5.83C58.96,4.75,23,7.31,6.77,38.58Z"/>
    <path class="cls-1" d="M98.66,41.15c-7.36-10.48-17.21-15.41-26.32-16.66,4.55-6.19,9.85-11.94,15.8-17.12,7.52,10.28,10.94,22.3,10.51,33.79Z"/>
  </g>
  <g>
    <path class="cls-2" d="M6.77,36.48c-2.18-1.81-4.3-3.72-6.35-5.74C19.94-4.04,61.71-6.63,85.21,12.21c-2.1,1.87-4.12,3.82-6.05,5.83C58.96,2.65,23,5.21,6.77,36.48Z"/>
    <path class="cls-2" d="M98.66,39.04c-7.36-10.48-17.21-15.41-26.32-16.66,4.55-6.19,9.85-11.94,15.8-17.12,7.52,10.28,10.94,22.3,10.51,33.79Z"/>
  </g>
  <g>
    <path class="cls-1" d="M99.37,66.47c-2.53-1.05-5.06-2.1-7.6-3.15-11.55,27.88-43.92,34.97-66.07,21.29-1.45,2.33-2.91,4.67-4.36,7,26.16,16.16,64.39,7.78,78.03-25.14Z"/>
    <path class="cls-1" d="M3.97,64.93c1.19,12.9,6.86,25.22,16.58,34.76,3.65-6.7,7.3-13.41,10.95-20.11-9-.52-19.24-4.67-27.53-14.65Z"/>
  </g>
  <g>
    <path class="cls-2" d="M99.37,64.37c-2.53-1.05-5.06-2.1-7.6-3.15-11.55,27.88-43.92,34.97-66.07,21.29-1.45,2.33-2.91,4.67-4.36,7,26.16,16.16,64.39,7.78,78.03-25.14Z"/>
    <path class="cls-2" d="M3.97,62.82c1.19,12.9,6.86,25.22,16.58,34.76,3.65-6.7,7.3-13.41,10.95-20.11-9-.52-19.24-4.67-27.53-14.65Z"/>
  </g>
</svg>